<?xml version="1.0" encoding="utf-8"?>
<!-- Generator: Adobe Illustrator 15.1.0, SVG Export Plug-In . SVG Version: 6.00 Build 0)  -->
<!DOCTYPE svg PUBLIC "-//W3C//DTD SVG 1.1//EN" "http://www.w3.org/Graphics/SVG/1.1/DTD/svg11.dtd">
<svg version="1.1" id="Layer_1" xmlns="http://www.w3.org/2000/svg" xmlns:xlink="http://www.w3.org/1999/xlink" x="0px" y="0px"
	 width="38.375px" height="21.375px" viewBox="295.945 291.39 38.375 21.375" enable-background="new 295.945 291.39 38.375 21.375"
	 xml:space="preserve">
<path fill="#FFFFFF" d="M312.869,302.122c0,3.06-1.586,5.188-4.156,5.977c-0.858,0.269-1.733,0.339-2.777,0.339h-0.556h-5.072
	h-0.091v-1.396h0.091h1.548v-9.858h-1.639v-1.378h0.091h5.607h0.018h0.417c0.529,0,1.061,0.026,1.548,0.124
	c0.273,0.045,0.542,0.104,0.815,0.181C311.229,296.861,312.869,299.044,312.869,302.122 M310.93,302.122
	c0-0.544-0.063-1.046-0.178-1.509c-0.269,1.351-1.143,2.401-2.393,2.812c-0.614,0.217-1.247,0.27-1.977,0.27h-2.573v3.274h2.013
	c0.858,0,1.566-0.071,2.236-0.322C309.83,306.058,310.93,304.43,310.93,302.122 M308.959,299.726c0-1.021-0.43-1.773-1.176-2.146
	c-0.295-0.155-0.667-0.244-1.088-0.283c-0.27-0.018-0.55-0.021-0.855-0.021h-2.029v4.957h2.352c0.595,0,1.062-0.09,1.475-0.252
	C308.474,301.622,308.959,300.815,308.959,299.726"/>
<path fill="#FFFFFF" d="M315.019,310.558H298.12V293.66h16.899V310.558z M313.846,294.832h-14.555v14.552h14.555V294.832z"/>
<path fill="#FFFFFF" d="M316.005,299.202h0.503v-3.16h-0.503V295.6h1.721c0.337,0,0.589,0.019,0.857,0.1
	c0.772,0.239,1.275,0.939,1.275,1.927c0,0.979-0.487,1.663-1.275,1.915c-0.262,0.086-0.532,0.107-0.852,0.107h-1.727V299.202z
	 M317.697,299.179c0.263,0,0.48-0.022,0.686-0.104c0.543-0.188,0.881-0.711,0.881-1.449c0-0.745-0.338-1.269-0.874-1.462
	c-0.224-0.082-0.43-0.093-0.692-0.093h-0.617v3.107H317.697L317.697,299.179z"/>
<path fill="#FFFFFF" d="M319.507,299.202h0.389l1.286-3.604h0.646l1.285,3.604h0.39v0.445h-1.4v-0.445h0.429l-0.314-0.9h-1.43
	l-0.313,0.9h0.433v0.445h-1.398V299.202L319.507,299.202z M322.072,297.843l-0.491-1.405c-0.058-0.166-0.068-0.31-0.068-0.31h-0.018
	c0,0-0.018,0.144-0.069,0.31l-0.496,1.405H322.072z"/>
<path fill="#FFFFFF" d="M322.706,296.042h-0.393V295.6h1.438v0.442h-0.443l0.901,2.667c0.046,0.144,0.069,0.313,0.069,0.313h0.018
	c0,0,0.021-0.171,0.067-0.313l0.903-2.667h-0.445V295.6h1.441v0.442h-0.402l-1.273,3.605h-0.606L322.706,296.042z"/>
<polygon fill="#FFFFFF" points="326.555,299.202 327.058,299.202 327.058,296.042 326.555,296.042 326.555,295.599 328.139,295.599 
	328.139,296.042 327.63,296.042 327.63,299.202 328.139,299.202 328.139,299.648 326.555,299.648 "/>
<path fill="#FFFFFF" d="M328.453,299.202h0.503v-3.16h-0.503V295.6h1.72c0.338,0,0.591,0.019,0.858,0.1
	c0.771,0.239,1.274,0.939,1.274,1.927c0,0.979-0.486,1.663-1.274,1.915c-0.263,0.086-0.532,0.107-0.852,0.107h-1.727V299.202z
	 M330.145,299.179c0.263,0,0.479-0.022,0.686-0.104c0.542-0.188,0.88-0.711,0.88-1.449c0-0.745-0.338-1.269-0.874-1.462
	c-0.224-0.082-0.429-0.093-0.691-0.093h-0.617v3.107H330.145L330.145,299.179z"/>
<path fill="#FFFFFF" d="M315.977,303.155h0.444v-2.795h-0.444v-0.391h1.668c0.218,0,0.435,0.016,0.612,0.096
	c0.371,0.158,0.609,0.538,0.609,1.017c0,0.502-0.263,0.906-0.674,1.05c-0.167,0.061-0.34,0.076-0.538,0.076h-0.726v0.947h0.451
	v0.396h-1.403V303.155z M317.594,301.791c0.162,0,0.288-0.025,0.4-0.07c0.229-0.103,0.361-0.331,0.361-0.64
	c0-0.29-0.117-0.503-0.321-0.609c-0.112-0.061-0.263-0.086-0.435-0.086h-0.671v1.405H317.594L317.594,301.791z"/>
<path fill="#FFFFFF" d="M320.851,299.909c1.034,0,1.841,0.797,1.841,1.825c0,1.056-0.807,1.876-1.841,1.876
	c-1.04,0-1.843-0.82-1.843-1.876C319.009,300.706,319.811,299.909,320.851,299.909 M320.851,303.16c0.725,0,1.312-0.619,1.312-1.426
	c0-0.78-0.587-1.38-1.312-1.38c-0.731,0-1.319,0.6-1.319,1.38C319.532,302.541,320.12,303.16,320.851,303.16"/>
<polygon fill="#FFFFFF" points="322.596,303.155 323.042,303.155 323.042,300.386 322.596,300.386 322.596,299.97 324,299.97 
	324,300.386 323.55,300.386 323.55,303.136 324.797,303.136 324.797,302.557 325.244,302.557 325.244,303.552 322.596,303.552 "/>
<path fill="#FFFFFF" d="M325.495,303.155h0.446v-2.795h-0.446v-0.391h1.345v0.391h-0.391v1.127h0.462l0.78-1.127h-0.33v-0.391h1.212
	v0.391h-0.344l-0.928,1.293v0.011c0,0,0.1,0.046,0.202,0.239l0.644,1.12c0.057,0.098,0.127,0.132,0.255,0.132h0.167v0.396h-0.36
	c-0.3,0-0.386-0.071-0.497-0.27l-0.689-1.238c-0.062-0.102-0.132-0.142-0.28-0.142h-0.293v1.252h0.441v0.396h-1.396V303.155
	L325.495,303.155z"/>
<path fill="#FFFFFF" d="M328.769,303.155h0.344l1.142-3.186h0.573l1.141,3.186h0.346v0.396h-1.243v-0.396h0.38l-0.278-0.796h-1.269
	l-0.278,0.796h0.384v0.396h-1.24V303.155L328.769,303.155z M331.046,301.953l-0.437-1.242c-0.05-0.147-0.062-0.274-0.062-0.274
	h-0.015c0,0-0.015,0.127-0.06,0.274l-0.442,1.242H331.046z"/>
<rect x="315.959" y="308.088" fill="#FFFFFF" width="0.724" height="0.729"/>
<path fill="#FFFFFF" d="M318.933,303.817c0.592,0,1.874,0.218,1.874,0.976v0.599h-0.648v-0.382c0-0.432-0.745-0.593-1.199-0.593
	c-1.051,0-1.823,0.772-1.823,1.889c0,1.163,0.794,1.992,1.865,1.992c0.35,0,1.227-0.125,1.227-0.58v-0.382h0.646v0.599
	c0,0.725-1.231,0.968-1.915,0.968c-1.476,0-2.543-1.134-2.543-2.568C316.417,304.89,317.511,303.817,318.933,303.817"/>
<path fill="#FFFFFF" d="M323.772,303.817c1.421,0,2.528,1.095,2.528,2.507c0,1.449-1.107,2.577-2.528,2.577
	c-1.428,0-2.527-1.128-2.527-2.577C321.246,304.911,322.345,303.817,323.772,303.817 M323.772,308.281
	c0.997,0,1.805-0.849,1.805-1.956c0-1.072-0.808-1.895-1.805-1.895c-1.002,0-1.812,0.821-1.812,1.895
	C321.961,307.433,322.771,308.281,323.772,308.281"/>
<path fill="#FFFFFF" d="M326.151,308.275h0.612l0.314-3.838h-0.627v-0.536h1.394l1.261,2.995c0.075,0.202,0.109,0.354,0.109,0.354
	h0.016c0,0,0.035-0.151,0.11-0.354l1.262-2.995h1.394v0.536h-0.628l0.313,3.838h0.613v0.543H330.4v-0.543h0.593l-0.224-2.938
	c-0.007-0.153,0.021-0.403,0.021-0.403h-0.021c0,0-0.056,0.236-0.112,0.375l-1.127,2.585h-0.612l-1.13-2.585
	c-0.055-0.139-0.111-0.375-0.111-0.375h-0.021c0,0,0.027,0.25,0.021,0.403l-0.223,2.938h0.593v0.543h-1.896V308.275L326.151,308.275
	z"/>
<rect x="315.957" y="309.522" fill="#FFFFFF" width="16.334" height="1.132"/>
<rect x="315.957" y="293.658" fill="#FFFFFF" width="16.334" height="1.133"/>
</svg>
