<?xml version="1.0" encoding="utf-8"?>
<!-- Generator: Adobe Illustrator 15.1.0, SVG Export Plug-In . SVG Version: 6.00 Build 0)  -->
<!DOCTYPE svg PUBLIC "-//W3C//DTD SVG 1.1//EN" "http://www.w3.org/Graphics/SVG/1.1/DTD/svg11.dtd">
<svg version="1.1" id="Layer_1" xmlns="http://www.w3.org/2000/svg" xmlns:xlink="http://www.w3.org/1999/xlink" x="0px" y="0px"
	 width="13.667px" height="13.625px" viewBox="-5.344 -0.281 13.667 13.625" enable-background="new -5.344 -0.281 13.667 13.625"
	 xml:space="preserve">
<path fill="#FFFFFF" d="M426.937,302.184v-7.96c0-1.047-0.853-1.896-1.896-1.896h-7.965c-1.046,0-1.896,0.852-1.896,1.896v7.96
	c0,1.046,0.851,1.896,1.896,1.896h3.981v-4.396h-1.493v-1.854h1.493v-0.936c0-1.338,1.004-2.426,2.239-2.426h1.49v1.85h-1.49
	c-0.179,0-0.373,0.238-0.373,0.562v0.95h1.863v1.854h-1.863v4.396h2.113C426.086,304.08,426.937,303.229,426.937,302.184"/>
<path fill="#FFFFFF" d="M7.26,10.403v-7.96c0-1.047-0.852-1.898-1.896-1.898H-2.6c-1.046,0-1.896,0.852-1.896,1.898v7.96
	c0,1.045,0.851,1.896,1.896,1.896h3.981V7.903h-1.493V6.049h1.493V5.115c0-1.338,1.004-2.426,2.239-2.426h1.492v1.85H3.621
	c-0.177,0-0.373,0.238-0.373,0.56v0.95h1.865v1.854H3.248v4.396h2.115C6.408,12.299,7.26,11.448,7.26,10.403"/>
</svg>
