<?xml version="1.0" encoding="utf-8"?>
<!-- Generator: Adobe Illustrator 15.1.0, SVG Export Plug-In . SVG Version: 6.00 Build 0)  -->
<!DOCTYPE svg PUBLIC "-//W3C//DTD SVG 1.1//EN" "http://www.w3.org/Graphics/SVG/1.1/DTD/svg11.dtd">
<svg version="1.1" id="Layer_1" xmlns="http://www.w3.org/2000/svg" xmlns:xlink="http://www.w3.org/1999/xlink" x="0px" y="0px"
	 width="283.75px" height="144.25px" viewBox="279.195 225.14 283.75 144.25" enable-background="new 279.195 225.14 283.75 144.25"
	 xml:space="preserve">
<polygon fill="#D75227" points="483.853,285.418 483.853,311.023 439.04,311.023 "/>
<polygon fill="#2B3C3F" points="530.616,312.888 485.803,312.888 485.803,338.491 508.21,325.691 530.616,338.491 "/>
<polygon fill="#A59E84" points="530.616,339.607 485.803,339.607 485.803,365.215 508.21,352.411 530.616,365.215 "/>
<rect x="439.319" y="312.889" fill="#A59E84" width="44.533" height="53.069"/>
<polygon fill="#37B6A0" points="485.804,285.541 485.804,311.148 530.617,311.148 "/>
<path fill="#A59E84" d="M484.129,255.932h-44.813c0-12.375,10.032-22.406,22.407-22.406
	C474.096,233.525,484.129,243.557,484.129,255.932"/>
<polygon fill="#2B3C3F" points="437.202,230.326 437.202,255.932 392.389,255.932 "/>
<polygon fill="#2B3C3F" points="285.311,363.086 335.354,363.086 335.354,338.598 310.333,350.841 285.311,338.598 "/>
<polygon fill="#2B3C3F" points="285.311,337.567 335.354,337.567 335.354,313.077 310.333,325.322 285.311,313.077 "/>
<polygon fill="#2B3C3F" points="285.311,312.699 335.354,312.699 335.354,288.213 310.333,300.457 285.311,288.213 "/>
<polygon fill="#2B3C3F" points="285.311,287.146 335.354,287.146 335.354,262.658 310.333,274.901 285.311,262.658 "/>
<rect x="392.666" y="257.796" fill="#37B6A0" width="44.536" height="53.07"/>
<rect x="380.55" y="312.936" fill="#A59E84" width="10.197" height="50.043"/>
<rect x="367.266" y="312.936" fill="#2B3C3F" width="10.197" height="50.043"/>
<rect x="353.984" y="312.936" fill="#37B6A0" width="10.198" height="50.043"/>
<rect x="340.704" y="312.936" fill="#2B3C3F" width="10.196" height="50.043"/>
<path fill="#D75227" d="M386.495,284.821c0-12.24-9.922-22.163-22.164-22.163c-12.241,0-22.165,9.923-22.165,22.163
	s9.924,22.164,22.165,22.164C376.573,306.985,386.495,297.062,386.495,284.821"/>
<rect x="546.14" y="282.963" fill="#A59E84" width="10.197" height="28.377"/>
<rect x="532.855" y="282.963" fill="#2B3C3F" width="10.198" height="28.377"/>
</svg>
