<?xml version="1.0" encoding="utf-8"?>
<!-- Generator: Adobe Illustrator 15.1.0, SVG Export Plug-In . SVG Version: 6.00 Build 0)  -->
<!DOCTYPE svg PUBLIC "-//W3C//DTD SVG 1.1//EN" "http://www.w3.org/Graphics/SVG/1.1/DTD/svg11.dtd">
<svg version="1.1" id="Layer_1" xmlns="http://www.w3.org/2000/svg" xmlns:xlink="http://www.w3.org/1999/xlink" x="0px" y="0px"
	 width="285px" height="146.333px" viewBox="276.445 221.807 285 146.333" enable-background="new 276.445 221.807 285 146.333"
	 xml:space="preserve">
<path fill="#A59E84" d="M373.652,252.718h-44.812c0-12.374,10.032-22.406,22.405-22.406
	C363.621,230.312,373.652,240.344,373.652,252.718"/>
<polygon fill="#37B6A0" points="462.271,334.031 462.271,308.426 507.083,308.426 "/>
<polygon fill="#2B3C3F" points="553.659,281.033 508.846,281.033 508.846,306.639 531.254,293.836 553.659,306.639 "/>
<polygon fill="#A59E84" points="508.847,308.312 508.847,333.92 531.254,321.115 553.66,333.92 553.66,308.312 "/>
<rect x="414.006" y="308.531" fill="#2B3C3F" width="46.534" height="53.069"/>
<polygon fill="#D75227" points="508.847,253.687 508.847,279.294 553.66,279.294 "/>
<polygon fill="#D75227" points="326.727,227.112 326.727,252.718 281.914,252.718 "/>
<polygon fill="#2B3C3F" points="373.488,254.582 328.675,254.582 328.675,280.186 351.083,267.384 373.488,280.186 "/>
<polygon fill="#A59E84" points="373.488,281.303 328.675,281.303 328.675,306.907 351.083,294.105 373.488,306.907 "/>
<rect x="282.192" y="254.582" fill="#2B3C3F" width="44.535" height="53.069"/>
<rect x="375.568" y="254.582" fill="#37B6A0" width="7.465" height="53.069"/>
<rect x="385.293" y="254.582" fill="#2B3C3F" width="7.463" height="53.069"/>
<rect x="395.013" y="254.582" fill="#D75227" width="7.467" height="53.069"/>
<rect x="404.738" y="254.582" fill="#A59E84" width="7.465" height="53.069"/>
</svg>
