<?xml version="1.0" encoding="utf-8"?>
<!-- Generator: Adobe Illustrator 15.1.0, SVG Export Plug-In . SVG Version: 6.00 Build 0)  -->
<!DOCTYPE svg PUBLIC "-//W3C//DTD SVG 1.1//EN" "http://www.w3.org/Graphics/SVG/1.1/DTD/svg11.dtd">
<svg version="1.1" id="Layer_1" xmlns="http://www.w3.org/2000/svg" xmlns:xlink="http://www.w3.org/1999/xlink" x="0px" y="0px"
	 width="15.334px" height="15.5px" viewBox="487.112 349.64 15.334 15.5" enable-background="new 487.112 349.64 15.334 15.5"
	 xml:space="preserve">
<path fill="#FFFFFF" d="M499.046,351.234h-7.961c-1.096,0-1.99,0.896-1.99,1.99v7.959c0,1.096,0.896,1.99,1.99,1.99h7.961
	c1.092,0,1.987-0.896,1.987-1.99v-7.959C501.033,352.13,500.137,351.234,499.046,351.234 M498.317,357.188
	c-0.75,3.044-5.787,4.336-8.104,1.175c0.888,0.849,2.434,0.923,3.414-0.091c-0.576,0.084-0.994-0.479-0.289-0.785
	c-0.634,0.069-0.987-0.269-1.132-0.556c0.148-0.155,0.312-0.229,0.632-0.249c-0.696-0.165-0.953-0.505-1.031-0.918
	c0.193-0.046,0.435-0.086,0.565-0.068c-0.608-0.316-0.819-0.798-0.786-1.157c1.088,0.404,1.78,0.729,2.36,1.039
	c0.206,0.11,0.437,0.311,0.697,0.562c0.33-0.876,0.738-1.778,1.44-2.227c-0.013,0.102-0.066,0.195-0.14,0.272
	c0.199-0.181,0.457-0.305,0.72-0.341c-0.03,0.197-0.313,0.309-0.485,0.373c0.131-0.041,0.819-0.35,0.896-0.173
	c0.089,0.198-0.476,0.29-0.57,0.324c-0.072,0.024-0.145,0.052-0.214,0.079c0.873-0.087,1.707,0.635,1.949,1.529
	c0.019,0.063,0.035,0.137,0.051,0.212c0.319,0.119,0.898-0.007,1.087-0.121c-0.137,0.319-0.486,0.556-1.005,0.598
	c0.25,0.104,0.72,0.16,1.043,0.105C499.212,356.992,498.882,357.192,498.317,357.188"/>
</svg>
